<svg xmlns="http://www.w3.org/2000/svg" viewBox="0 0 900 600">
  <rect width="900" height="600" fill="#DE2910"/>
  <g fill="#FFDE00">
    <polygon points="150,120 162,156 200,156 169,180 180,216 150,192 120,216 131,180 100,156 138,156"/>
    <polygon points="240,50 246,68 265,68 250,80 256,98 240,86 224,98 230,80 215,68 234,68"/>
    <polygon points="280,100 286,118 305,118 290,130 296,148 280,136 264,148 270,130 255,118 274,118"/>
    <polygon points="280,170 286,188 305,188 290,200 296,218 280,206 264,218 270,200 255,188 274,188"/>
    <polygon points="240,220 246,238 265,238 250,250 256,268 240,256 224,268 230,250 215,238 234,238"/>
  </g>
</svg>